<mxfile host="app.diagrams.net" agent="Mozilla/5.0 (Windows NT 10.0; Win64; x64) AppleWebKit/537.36 (KHTML, like Gecko) Chrome/134.0.0.0 Safari/537.36 OPR/119.0.0.0" version="26.2.14">
  <diagram name="Página-1" id="BLvk0eQHxglNfP6eWdGU">
    <mxGraphModel dx="835" dy="476" grid="1" gridSize="10" guides="1" tooltips="1" connect="1" arrows="1" fold="1" page="1" pageScale="1" pageWidth="827" pageHeight="1169" math="0" shadow="0">
      <root>
        <mxCell id="0" />
        <mxCell id="1" parent="0" />
        <mxCell id="ODyMLqYF2nCaOZKzwvnY-1" value="&lt;span id=&quot;docs-internal-guid-a57da334-7fff-e3e3-7578-2005c0f5c0eb&quot;&gt;&lt;p style=&quot;line-height:1.7999999999999998;text-align: justify;margin-top:0pt;margin-bottom:0pt;&quot; dir=&quot;ltr&quot;&gt;&lt;span style=&quot;font-family: Arial, sans-serif; background-color: rgb(0, 255, 0); font-weight: 700; font-variant-numeric: normal; font-variant-east-asian: normal; font-variant-alternates: normal; font-variant-position: normal; font-variant-emoji: normal; vertical-align: baseline; white-space-collapse: preserve;&quot;&gt;&lt;font style=&quot;font-size: 6px;&quot;&gt;Possibilidade da criação de listas de questões:&lt;/font&gt;&lt;/span&gt;&lt;/p&gt;&lt;p style=&quot;line-height:1.7999999999999998;text-align: justify;margin-top:0pt;margin-bottom:0pt;&quot; dir=&quot;ltr&quot;&gt;&lt;span style=&quot;font-family: Arial, sans-serif; background-color: rgb(0, 255, 0); font-variant-numeric: normal; font-variant-east-asian: normal; font-variant-alternates: normal; font-variant-position: normal; font-variant-emoji: normal; vertical-align: baseline; white-space-collapse: preserve;&quot;&gt;&lt;font size=&quot;3&quot;&gt;Ao acessar as questões pesquisadas, o usuário terá a possibilidade de salvar a questão que estiver sendo exibida na tela em uma lista, para melhor e mais rápida visualização no futuro, com a possibilidade ainda de criação de várias listas.&lt;/font&gt;&lt;/span&gt;&lt;/p&gt;&lt;div&gt;&lt;span style=&quot;font-size: 12pt; font-family: Arial, sans-serif; background-color: rgb(0, 255, 0); font-variant-numeric: normal; font-variant-east-asian: normal; font-variant-alternates: normal; font-variant-position: normal; font-variant-emoji: normal; vertical-align: baseline; white-space-collapse: preserve;&quot;&gt;&lt;br&gt;&lt;/span&gt;&lt;/div&gt;&lt;/span&gt;" style="rounded=0;whiteSpace=wrap;html=1;" parent="1" vertex="1">
          <mxGeometry x="30" y="80" width="440" height="150" as="geometry" />
        </mxCell>
        <mxCell id="ODyMLqYF2nCaOZKzwvnY-2" value="Usuario" style="rounded=0;whiteSpace=wrap;html=1;" parent="1" vertex="1">
          <mxGeometry x="240" y="280" width="80" height="30" as="geometry" />
        </mxCell>
        <mxCell id="ODyMLqYF2nCaOZKzwvnY-4" value="" style="endArrow=none;dashed=1;html=1;rounded=0;" parent="1" source="YkKsjHE401IhQZZh_499-2" edge="1">
          <mxGeometry width="50" height="50" relative="1" as="geometry">
            <mxPoint x="280" y="680" as="sourcePoint" />
            <mxPoint x="280" y="310" as="targetPoint" />
          </mxGeometry>
        </mxCell>
        <mxCell id="YkKsjHE401IhQZZh_499-1" value="ViewListas" style="rounded=0;whiteSpace=wrap;html=1;" parent="1" vertex="1">
          <mxGeometry x="400" y="280" width="80" height="30" as="geometry" />
        </mxCell>
        <mxCell id="YkKsjHE401IhQZZh_499-3" value="" style="endArrow=none;dashed=1;html=1;rounded=0;exitX=0.5;exitY=0;exitDx=0;exitDy=0;" parent="1" target="YkKsjHE401IhQZZh_499-2" edge="1" source="V8U6Opk8REqJxy-VVyZn-57">
          <mxGeometry width="50" height="50" relative="1" as="geometry">
            <mxPoint x="280" y="800" as="sourcePoint" />
            <mxPoint x="280" y="310" as="targetPoint" />
            <Array as="points">
              <mxPoint x="280" y="730" />
            </Array>
          </mxGeometry>
        </mxCell>
        <mxCell id="YkKsjHE401IhQZZh_499-2" value="" style="rounded=0;whiteSpace=wrap;html=1;" parent="1" vertex="1">
          <mxGeometry x="275" y="460" width="10" height="400" as="geometry" />
        </mxCell>
        <mxCell id="YkKsjHE401IhQZZh_499-6" value="" style="endArrow=none;dashed=1;html=1;rounded=0;" parent="1" edge="1" source="V8U6Opk8REqJxy-VVyZn-2">
          <mxGeometry width="50" height="50" relative="1" as="geometry">
            <mxPoint x="440" y="680" as="sourcePoint" />
            <mxPoint x="440" y="310" as="targetPoint" />
          </mxGeometry>
        </mxCell>
        <mxCell id="YkKsjHE401IhQZZh_499-7" value="Administrador" style="rounded=0;whiteSpace=wrap;html=1;" parent="1" vertex="1">
          <mxGeometry x="80" y="280" width="80" height="30" as="geometry" />
        </mxCell>
        <mxCell id="YkKsjHE401IhQZZh_499-22" value="opt" style="shape=umlFrame;whiteSpace=wrap;html=1;pointerEvents=0;" parent="1" vertex="1">
          <mxGeometry x="40" y="330" width="280" height="101.5" as="geometry" />
        </mxCell>
        <mxCell id="YkKsjHE401IhQZZh_499-23" value="" style="endArrow=open;html=1;rounded=0;exitX=1.037;exitY=0.719;exitDx=0;exitDy=0;exitPerimeter=0;dashed=1;endFill=0;" parent="1" source="YkKsjHE401IhQZZh_499-26" edge="1">
          <mxGeometry width="50" height="50" relative="1" as="geometry">
            <mxPoint x="235" y="355.5013529111242" as="sourcePoint" />
            <mxPoint x="125" y="358" as="targetPoint" />
          </mxGeometry>
        </mxCell>
        <mxCell id="YkKsjHE401IhQZZh_499-25" style="edgeStyle=orthogonalEdgeStyle;rounded=0;orthogonalLoop=1;jettySize=auto;html=1;curved=0;" parent="1" source="YkKsjHE401IhQZZh_499-24" target="YkKsjHE401IhQZZh_499-24" edge="1">
          <mxGeometry relative="1" as="geometry" />
        </mxCell>
        <mxCell id="YkKsjHE401IhQZZh_499-26" value="Solicita ajuda" style="text;html=1;align=center;verticalAlign=middle;whiteSpace=wrap;rounded=0;" parent="1" vertex="1">
          <mxGeometry x="140" y="334.43" width="130" height="33.41" as="geometry" />
        </mxCell>
        <mxCell id="YkKsjHE401IhQZZh_499-27" value="visualizarReporte()" style="text;html=1;align=center;verticalAlign=middle;whiteSpace=wrap;rounded=0;" parent="1" vertex="1">
          <mxGeometry x="160" y="369.21" width="90" height="23.86" as="geometry" />
        </mxCell>
        <mxCell id="YkKsjHE401IhQZZh_499-28" value="" style="html=1;points=[[0,0,0,0,5],[0,1,0,0,-5],[1,0,0,0,5],[1,1,0,0,-5]];perimeter=orthogonalPerimeter;outlineConnect=0;targetShapes=umlLifeline;portConstraint=eastwest;newEdgeStyle={&quot;curved&quot;:0,&quot;rounded&quot;:0};" parent="1" vertex="1">
          <mxGeometry x="275" y="346.1445732501072" width="10" height="21.69406779661017" as="geometry" />
        </mxCell>
        <mxCell id="YkKsjHE401IhQZZh_499-30" value="" style="endArrow=none;dashed=1;html=1;dashPattern=1 3;strokeWidth=2;rounded=0;" parent="1" source="YkKsjHE401IhQZZh_499-24" edge="1">
          <mxGeometry width="50" height="50" relative="1" as="geometry">
            <mxPoint x="120" y="680" as="sourcePoint" />
            <mxPoint x="120" y="310" as="targetPoint" />
          </mxGeometry>
        </mxCell>
        <mxCell id="YkKsjHE401IhQZZh_499-31" value="" style="endArrow=none;dashed=1;html=1;dashPattern=1 3;strokeWidth=2;rounded=0;" parent="1" target="YkKsjHE401IhQZZh_499-24" edge="1">
          <mxGeometry width="50" height="50" relative="1" as="geometry">
            <mxPoint x="120" y="1130" as="sourcePoint" />
            <mxPoint x="120" y="310" as="targetPoint" />
          </mxGeometry>
        </mxCell>
        <mxCell id="YkKsjHE401IhQZZh_499-24" value="" style="html=1;points=[[0,0,0,0,5],[0,1,0,0,-5],[1,0,0,0,5],[1,1,0,0,-5]];perimeter=orthogonalPerimeter;outlineConnect=0;targetShapes=umlLifeline;portConstraint=eastwest;newEdgeStyle={&quot;curved&quot;:0,&quot;rounded&quot;:0};" parent="1" vertex="1">
          <mxGeometry x="115" y="346.1413529111241" width="10" height="70" as="geometry" />
        </mxCell>
        <mxCell id="YkKsjHE401IhQZZh_499-32" value="ViewController" style="rounded=0;whiteSpace=wrap;html=1;" parent="1" vertex="1">
          <mxGeometry x="550" y="280" width="100" height="30" as="geometry" />
        </mxCell>
        <mxCell id="V8U6Opk8REqJxy-VVyZn-3" value="" style="endArrow=none;dashed=1;html=1;rounded=0;exitX=0.5;exitY=0;exitDx=0;exitDy=0;" edge="1" parent="1" source="V8U6Opk8REqJxy-VVyZn-64" target="V8U6Opk8REqJxy-VVyZn-2">
          <mxGeometry width="50" height="50" relative="1" as="geometry">
            <mxPoint x="440" y="800" as="sourcePoint" />
            <mxPoint x="440" y="310" as="targetPoint" />
          </mxGeometry>
        </mxCell>
        <mxCell id="V8U6Opk8REqJxy-VVyZn-2" value="" style="rounded=0;whiteSpace=wrap;html=1;" vertex="1" parent="1">
          <mxGeometry x="435" y="460" width="10" height="400" as="geometry" />
        </mxCell>
        <mxCell id="V8U6Opk8REqJxy-VVyZn-6" value="Criar lista" style="text;html=1;align=center;verticalAlign=middle;whiteSpace=wrap;rounded=0;" vertex="1" parent="1">
          <mxGeometry x="290" y="431.5" width="130" height="33.41" as="geometry" />
        </mxCell>
        <mxCell id="V8U6Opk8REqJxy-VVyZn-7" value="" style="endArrow=classic;html=1;rounded=0;" edge="1" parent="1">
          <mxGeometry width="50" height="50" relative="1" as="geometry">
            <mxPoint x="286" y="464.91125000000005" as="sourcePoint" />
            <mxPoint x="431" y="464.91" as="targetPoint" />
          </mxGeometry>
        </mxCell>
        <mxCell id="V8U6Opk8REqJxy-VVyZn-8" value="" style="endArrow=none;dashed=1;html=1;rounded=0;" edge="1" parent="1">
          <mxGeometry width="50" height="50" relative="1" as="geometry">
            <mxPoint x="600" y="680" as="sourcePoint" />
            <mxPoint x="599.76" y="310" as="targetPoint" />
          </mxGeometry>
        </mxCell>
        <mxCell id="V8U6Opk8REqJxy-VVyZn-10" value="" style="endArrow=none;dashed=1;html=1;rounded=0;" edge="1" parent="1">
          <mxGeometry width="50" height="50" relative="1" as="geometry">
            <mxPoint x="595" y="600.5" as="sourcePoint" />
            <mxPoint x="595" y="630.5" as="targetPoint" />
          </mxGeometry>
        </mxCell>
        <mxCell id="V8U6Opk8REqJxy-VVyZn-9" value="" style="rounded=0;whiteSpace=wrap;html=1;" vertex="1" parent="1">
          <mxGeometry x="595" y="460" width="10" height="170" as="geometry" />
        </mxCell>
        <mxCell id="V8U6Opk8REqJxy-VVyZn-11" value="" style="endArrow=classic;html=1;rounded=0;entryX=0;entryY=0.75;entryDx=0;entryDy=0;" edge="1" parent="1" target="V8U6Opk8REqJxy-VVyZn-14">
          <mxGeometry width="50" height="50" relative="1" as="geometry">
            <mxPoint x="450" y="467" as="sourcePoint" />
            <mxPoint x="590" y="480" as="targetPoint" />
          </mxGeometry>
        </mxCell>
        <mxCell id="V8U6Opk8REqJxy-VVyZn-12" value="" style="rounded=0;whiteSpace=wrap;html=1;" vertex="1" parent="1">
          <mxGeometry x="605" y="475" width="10" height="135" as="geometry" />
        </mxCell>
        <mxCell id="V8U6Opk8REqJxy-VVyZn-13" value="" style="endArrow=open;html=1;rounded=0;exitX=1;exitY=0;exitDx=0;exitDy=0;dashed=1;endFill=0;entryX=1;entryY=0.474;entryDx=0;entryDy=0;entryPerimeter=0;" edge="1" parent="1" target="V8U6Opk8REqJxy-VVyZn-12">
          <mxGeometry width="50" height="50" relative="1" as="geometry">
            <mxPoint x="605" y="464.91" as="sourcePoint" />
            <mxPoint x="615" y="522.41" as="targetPoint" />
            <Array as="points">
              <mxPoint x="680" y="464.91" />
              <mxPoint x="680" y="539" />
            </Array>
          </mxGeometry>
        </mxCell>
        <mxCell id="V8U6Opk8REqJxy-VVyZn-14" value="ValidaLimiteLista" style="text;html=1;align=center;verticalAlign=middle;whiteSpace=wrap;rounded=0;" vertex="1" parent="1">
          <mxGeometry x="590" y="441.59" width="130" height="33.41" as="geometry" />
        </mxCell>
        <mxCell id="V8U6Opk8REqJxy-VVyZn-23" value="" style="endArrow=open;html=1;rounded=0;exitX=1.037;exitY=0.719;exitDx=0;exitDy=0;exitPerimeter=0;dashed=1;endFill=0;" edge="1" parent="1">
          <mxGeometry width="50" height="50" relative="1" as="geometry">
            <mxPoint x="595" y="570" as="sourcePoint" />
            <mxPoint x="455" y="570" as="targetPoint" />
          </mxGeometry>
        </mxCell>
        <mxCell id="V8U6Opk8REqJxy-VVyZn-25" value="Dentro do limite (até 10)" style="text;html=1;align=center;verticalAlign=middle;whiteSpace=wrap;rounded=0;" vertex="1" parent="1">
          <mxGeometry x="445" y="540" width="150" height="33.41" as="geometry" />
        </mxCell>
        <mxCell id="V8U6Opk8REqJxy-VVyZn-27" value="" style="endArrow=open;html=1;rounded=0;exitX=1.037;exitY=0.719;exitDx=0;exitDy=0;exitPerimeter=0;dashed=1;endFill=0;" edge="1" parent="1">
          <mxGeometry width="50" height="50" relative="1" as="geometry">
            <mxPoint x="430" y="570" as="sourcePoint" />
            <mxPoint x="290" y="570" as="targetPoint" />
          </mxGeometry>
        </mxCell>
        <mxCell id="V8U6Opk8REqJxy-VVyZn-28" value="Insira o nome da Lista" style="text;html=1;align=center;verticalAlign=middle;whiteSpace=wrap;rounded=0;" vertex="1" parent="1">
          <mxGeometry x="285" y="540" width="150" height="33.41" as="geometry" />
        </mxCell>
        <mxCell id="V8U6Opk8REqJxy-VVyZn-32" value="Inserir o nome" style="text;html=1;align=center;verticalAlign=middle;whiteSpace=wrap;rounded=0;" vertex="1" parent="1">
          <mxGeometry x="290" y="696.5899999999999" width="130" height="33.41" as="geometry" />
        </mxCell>
        <mxCell id="V8U6Opk8REqJxy-VVyZn-33" value="" style="endArrow=classic;html=1;rounded=0;" edge="1" parent="1">
          <mxGeometry width="50" height="50" relative="1" as="geometry">
            <mxPoint x="285" y="720.5500000000001" as="sourcePoint" />
            <mxPoint x="425" y="720.5500000000001" as="targetPoint" />
          </mxGeometry>
        </mxCell>
        <mxCell id="V8U6Opk8REqJxy-VVyZn-36" value="SalvaLista" style="text;html=1;align=center;verticalAlign=middle;resizable=0;points=[];autosize=1;strokeColor=none;fillColor=none;" vertex="1" parent="1">
          <mxGeometry x="475" y="700" width="80" height="30" as="geometry" />
        </mxCell>
        <mxCell id="V8U6Opk8REqJxy-VVyZn-41" value="" style="rounded=0;whiteSpace=wrap;html=1;" vertex="1" parent="1">
          <mxGeometry x="600" y="720.5" width="10" height="70" as="geometry" />
        </mxCell>
        <mxCell id="V8U6Opk8REqJxy-VVyZn-42" value="" style="endArrow=none;dashed=1;html=1;rounded=0;" edge="1" parent="1" source="V8U6Opk8REqJxy-VVyZn-65">
          <mxGeometry width="50" height="50" relative="1" as="geometry">
            <mxPoint x="600" y="930" as="sourcePoint" />
            <mxPoint x="599.5899999999999" y="691" as="targetPoint" />
          </mxGeometry>
        </mxCell>
        <mxCell id="V8U6Opk8REqJxy-VVyZn-43" value="alt" style="shape=umlFrame;whiteSpace=wrap;html=1;pointerEvents=0;" vertex="1" parent="1">
          <mxGeometry x="442.5" y="585" width="200" height="60" as="geometry" />
        </mxCell>
        <mxCell id="V8U6Opk8REqJxy-VVyZn-44" value="" style="endArrow=classic;html=1;rounded=0;" edge="1" parent="1">
          <mxGeometry width="50" height="50" relative="1" as="geometry">
            <mxPoint x="450" y="721.0000000000001" as="sourcePoint" />
            <mxPoint x="595" y="721" as="targetPoint" />
          </mxGeometry>
        </mxCell>
        <mxCell id="V8U6Opk8REqJxy-VVyZn-45" value="" style="endArrow=open;html=1;rounded=0;dashed=1;endFill=0;entryX=1.3;entryY=0.57;entryDx=0;entryDy=0;entryPerimeter=0;" edge="1" parent="1" target="V8U6Opk8REqJxy-VVyZn-46">
          <mxGeometry width="50" height="50" relative="1" as="geometry">
            <mxPoint x="605" y="729.5" as="sourcePoint" />
            <mxPoint x="630.5" y="762.5" as="targetPoint" />
            <Array as="points">
              <mxPoint x="696" y="729.5" />
              <mxPoint x="696" y="759.5" />
            </Array>
          </mxGeometry>
        </mxCell>
        <mxCell id="V8U6Opk8REqJxy-VVyZn-46" value="" style="rounded=0;whiteSpace=wrap;html=1;" vertex="1" parent="1">
          <mxGeometry x="610" y="735.5" width="10" height="40" as="geometry" />
        </mxCell>
        <mxCell id="V8U6Opk8REqJxy-VVyZn-48" value="ValidaDados" style="text;html=1;align=center;verticalAlign=middle;resizable=0;points=[];autosize=1;strokeColor=none;fillColor=none;" vertex="1" parent="1">
          <mxGeometry x="605" y="706" width="90" height="30" as="geometry" />
        </mxCell>
        <mxCell id="V8U6Opk8REqJxy-VVyZn-49" value="" style="endArrow=open;html=1;rounded=0;dashed=1;endFill=0;" edge="1" parent="1">
          <mxGeometry width="50" height="50" relative="1" as="geometry">
            <mxPoint x="595" y="791" as="sourcePoint" />
            <mxPoint x="450" y="791" as="targetPoint" />
          </mxGeometry>
        </mxCell>
        <mxCell id="V8U6Opk8REqJxy-VVyZn-50" value="Sucesso" style="text;html=1;align=center;verticalAlign=middle;resizable=0;points=[];autosize=1;strokeColor=none;fillColor=none;" vertex="1" parent="1">
          <mxGeometry x="475" y="769.5" width="70" height="30" as="geometry" />
        </mxCell>
        <mxCell id="V8U6Opk8REqJxy-VVyZn-53" value="" style="endArrow=none;dashed=1;html=1;rounded=0;" edge="1" parent="1">
          <mxGeometry width="50" height="50" relative="1" as="geometry">
            <mxPoint x="595" y="670.5" as="sourcePoint" />
            <mxPoint x="595" y="630.5" as="targetPoint" />
          </mxGeometry>
        </mxCell>
        <mxCell id="V8U6Opk8REqJxy-VVyZn-54" value="&lt;b style=&quot;font-weight:normal;&quot; id=&quot;docs-internal-guid-245c9a75-7fff-a788-f105-0794429abbf5&quot;&gt;&lt;span style=&quot;font-family: Arial, sans-serif; color: rgb(0, 0, 0); background-color: transparent; font-weight: 400; font-style: normal; font-variant: normal; text-decoration: none; vertical-align: baseline; white-space: pre-wrap;&quot;&gt;&lt;font&gt;msg_maximo_lista&lt;/font&gt;&lt;/span&gt;&lt;/b&gt;" style="text;whiteSpace=wrap;html=1;" vertex="1" parent="1">
          <mxGeometry x="460" y="605.25" width="165" height="20" as="geometry" />
        </mxCell>
        <mxCell id="V8U6Opk8REqJxy-VVyZn-55" value="" style="endArrow=open;html=1;rounded=0;exitX=-0.022;exitY=0.919;exitDx=0;exitDy=0;exitPerimeter=0;dashed=1;endFill=0;" edge="1" parent="1">
          <mxGeometry width="50" height="50" relative="1" as="geometry">
            <mxPoint x="589.7800000000002" y="630.0899999999999" as="sourcePoint" />
            <mxPoint x="445" y="630" as="targetPoint" />
          </mxGeometry>
        </mxCell>
        <mxCell id="V8U6Opk8REqJxy-VVyZn-57" value="" style="rounded=0;whiteSpace=wrap;html=1;" vertex="1" parent="1">
          <mxGeometry x="275" y="930" width="10" height="100" as="geometry" />
        </mxCell>
        <mxCell id="V8U6Opk8REqJxy-VVyZn-58" value="Exportar PDF" style="text;html=1;align=center;verticalAlign=middle;whiteSpace=wrap;rounded=0;" vertex="1" parent="1">
          <mxGeometry x="290" y="930" width="130" height="33.41" as="geometry" />
        </mxCell>
        <mxCell id="V8U6Opk8REqJxy-VVyZn-63" value="" style="endArrow=classic;html=1;rounded=0;exitX=0;exitY=1;exitDx=0;exitDy=0;" edge="1" parent="1">
          <mxGeometry width="50" height="50" relative="1" as="geometry">
            <mxPoint x="285.0000000000002" y="960.4100000000001" as="sourcePoint" />
            <mxPoint x="430" y="960" as="targetPoint" />
          </mxGeometry>
        </mxCell>
        <mxCell id="V8U6Opk8REqJxy-VVyZn-64" value="" style="rounded=0;whiteSpace=wrap;html=1;" vertex="1" parent="1">
          <mxGeometry x="435" y="940" width="10" height="90" as="geometry" />
        </mxCell>
        <mxCell id="V8U6Opk8REqJxy-VVyZn-66" value="" style="endArrow=none;dashed=1;html=1;rounded=0;" edge="1" parent="1" target="V8U6Opk8REqJxy-VVyZn-65">
          <mxGeometry width="50" height="50" relative="1" as="geometry">
            <mxPoint x="600" y="1130" as="sourcePoint" />
            <mxPoint x="599.5899999999999" y="891" as="targetPoint" />
          </mxGeometry>
        </mxCell>
        <mxCell id="V8U6Opk8REqJxy-VVyZn-65" value="" style="rounded=0;whiteSpace=wrap;html=1;" vertex="1" parent="1">
          <mxGeometry x="595" y="940" width="10" height="80" as="geometry" />
        </mxCell>
        <mxCell id="V8U6Opk8REqJxy-VVyZn-67" value="opt" style="shape=umlFrame;whiteSpace=wrap;html=1;pointerEvents=0;" vertex="1" parent="1">
          <mxGeometry x="180" y="920" width="500" height="150" as="geometry" />
        </mxCell>
        <mxCell id="V8U6Opk8REqJxy-VVyZn-68" value="" style="endArrow=open;html=1;rounded=0;dashed=1;endFill=0;" edge="1" parent="1">
          <mxGeometry width="50" height="50" relative="1" as="geometry">
            <mxPoint x="592.5" y="1010" as="sourcePoint" />
            <mxPoint x="447.5" y="1010" as="targetPoint" />
          </mxGeometry>
        </mxCell>
        <mxCell id="V8U6Opk8REqJxy-VVyZn-70" value="Arquivo Gerado" style="text;html=1;align=center;verticalAlign=middle;resizable=0;points=[];autosize=1;strokeColor=none;fillColor=none;" vertex="1" parent="1">
          <mxGeometry x="460" y="980" width="110" height="30" as="geometry" />
        </mxCell>
        <mxCell id="V8U6Opk8REqJxy-VVyZn-71" value="" style="endArrow=classic;html=1;rounded=0;exitX=0;exitY=1;exitDx=0;exitDy=0;" edge="1" parent="1">
          <mxGeometry width="50" height="50" relative="1" as="geometry">
            <mxPoint x="450.0000000000002" y="960.4100000000001" as="sourcePoint" />
            <mxPoint x="595" y="960" as="targetPoint" />
            <Array as="points">
              <mxPoint x="520" y="960" />
            </Array>
          </mxGeometry>
        </mxCell>
        <mxCell id="V8U6Opk8REqJxy-VVyZn-72" value="" style="endArrow=open;html=1;rounded=0;dashed=1;endFill=0;" edge="1" parent="1">
          <mxGeometry width="50" height="50" relative="1" as="geometry">
            <mxPoint x="430" y="1010" as="sourcePoint" />
            <mxPoint x="285" y="1010" as="targetPoint" />
          </mxGeometry>
        </mxCell>
        <mxCell id="V8U6Opk8REqJxy-VVyZn-73" value="" style="endArrow=none;dashed=1;html=1;rounded=0;" edge="1" parent="1">
          <mxGeometry width="50" height="50" relative="1" as="geometry">
            <mxPoint x="439.16999999999996" y="1140" as="sourcePoint" />
            <mxPoint x="439.16999999999996" y="1030" as="targetPoint" />
          </mxGeometry>
        </mxCell>
        <mxCell id="V8U6Opk8REqJxy-VVyZn-74" value="" style="endArrow=none;dashed=1;html=1;rounded=0;" edge="1" parent="1">
          <mxGeometry width="50" height="50" relative="1" as="geometry">
            <mxPoint x="279.58" y="1140" as="sourcePoint" />
            <mxPoint x="279.58" y="1030" as="targetPoint" />
          </mxGeometry>
        </mxCell>
        <mxCell id="V8U6Opk8REqJxy-VVyZn-75" value="" style="endArrow=open;html=1;rounded=0;dashed=1;endFill=0;" edge="1" parent="1">
          <mxGeometry width="50" height="50" relative="1" as="geometry">
            <mxPoint x="605" y="951.71" as="sourcePoint" />
            <mxPoint x="620" y="982" as="targetPoint" />
            <Array as="points">
              <mxPoint x="696" y="951.71" />
              <mxPoint x="696" y="981.71" />
            </Array>
          </mxGeometry>
        </mxCell>
        <mxCell id="V8U6Opk8REqJxy-VVyZn-76" value="" style="rounded=0;whiteSpace=wrap;html=1;" vertex="1" parent="1">
          <mxGeometry x="605" y="965" width="10" height="40" as="geometry" />
        </mxCell>
        <mxCell id="V8U6Opk8REqJxy-VVyZn-77" value="ExportarPDF" style="text;html=1;align=center;verticalAlign=middle;resizable=0;points=[];autosize=1;strokeColor=none;fillColor=none;" vertex="1" parent="1">
          <mxGeometry x="610" y="930" width="90" height="30" as="geometry" />
        </mxCell>
        <mxCell id="V8U6Opk8REqJxy-VVyZn-80" value="Download do arquivo" style="text;html=1;align=center;verticalAlign=middle;resizable=0;points=[];autosize=1;strokeColor=none;fillColor=none;" vertex="1" parent="1">
          <mxGeometry x="288.5" y="980" width="140" height="30" as="geometry" />
        </mxCell>
        <mxCell id="V8U6Opk8REqJxy-VVyZn-81" value="opt" style="shape=umlFrame;whiteSpace=wrap;html=1;pointerEvents=0;" vertex="1" parent="1">
          <mxGeometry x="250" y="605.25" width="180" height="75" as="geometry" />
        </mxCell>
        <mxCell id="V8U6Opk8REqJxy-VVyZn-82" value="" style="endArrow=classic;html=1;rounded=0;" edge="1" parent="1">
          <mxGeometry width="50" height="50" relative="1" as="geometry">
            <mxPoint x="286" y="650.50125" as="sourcePoint" />
            <mxPoint x="431" y="650.5" as="targetPoint" />
          </mxGeometry>
        </mxCell>
        <mxCell id="V8U6Opk8REqJxy-VVyZn-83" value="Cancelar Criar lista" style="text;html=1;align=center;verticalAlign=middle;whiteSpace=wrap;rounded=0;" vertex="1" parent="1">
          <mxGeometry x="288.5" y="625.25" width="130" height="33.41" as="geometry" />
        </mxCell>
      </root>
    </mxGraphModel>
  </diagram>
</mxfile>
